inDegrees=yes
name=ik_S57_A04_T01
DataType=double
version=3
OpenSimVersion=4.3-2021-08-27-4bc7ad9
endheader
time	pelvis_tilt	pelvis_list	pelvis_rotation	pelvis_tx	pelvis_ty	pelvis_tz	hip_flexion_r	hip_adduction_r	hip_rotation_r	knee_angle_r	knee_angle_r_beta	ankle_angle_r	subtalar_angle_r	mtp_angle_r	hip_flexion_l	hip_adduction_l	hip_rotation_l	knee_angle_l	knee_angle_l_beta	ankle_angle_l	subtalar_angle_l	mtp_angle_l	lumbar_extension	lumbar_bending	lumbar_rotation	arm_flex_r	arm_add_r	arm_rot_r	elbow_flex_r	pro_sup_r	wrist_flex_r	wrist_dev_r	arm_flex_l	arm_add_l	arm_rot_l	elbow_flex_l	pro_sup_l	wrist_flex_l	wrist_dev_l
18.2999999999997	1.281145177996228	0.9739728426882044	21.7422435947705	0	0.9399999999999999	0	1.915849081934808	-4.153736093796258	1.394690658548966	-0.1503536653439451	-0.002624166502693535	0	0	0	-3.393119799577645	-3.189426994271347	-4.606870054044471	-2.011764638355767	-0.03511191671450114	0	0	0	0	0	0	34.98986992339358	-34.98986992339358	4.660254004699546	80.64684815470402	85.33974625476772	0	0	34.98986992339358	-34.98986992339358	4.660254004699546	80.64684815470402	85.33974625470456	0	0
18.3199999999997	1.2656479503401	0.9637444811789074	21.76400553375813	0	0.9399999999999999	0	2.166078907644055	-4.114297545382905	1.284759627625861	0.04934969366270516	0.0008613146392647851	0	0	0	-3.096893774036567	-3.217020541394432	-4.496186822437584	-1.612044432550224	-0.02813548303644507	0	0	0	0	0	0	34.99112422534407	-34.99112422534407	4.660339191850912	80.64794191270495	85.33966106762038	0	0	34.99112422534407	-34.99112422534407	4.660339191850912	80.64794191270495	85.33966106755742	0	0
18.3399999999997	1.282157332861801	0.9725424686174803	21.74767074784852	0	0.9399999999999999	0	2.441420548270795	-4.022314173407024	1.274457474310076	0.383816354796978	0.006698859114209997	0	0	0	-2.803591264908654	-3.266396202308152	-4.274667896316167	-1.083295471341775	-0.01890707274685785	0	0	0	0	0	0	34.9929166505845	-34.9929166505845	4.660461012130105	80.64950602583933	85.33953924734712	0	0	34.9929166505845	-34.9929166505845	4.660461012130105	80.64950602583933	85.33953924728421	0	0
18.3599999999997	1.274077850389833	0.9629961345489965	21.74651554110947	0	0.9399999999999999	0	2.814418949364029	-3.896411348400419	1.339078567652352	0.8681512699349894	0.01515209806573562	0	0	0	-2.501992561185376	-3.317654941995979	-4.158961442004816	-0.687993767300569	-0.01200775647259463	0	0	0	0	0	0	34.99461774930094	-34.99461774930094	4.660576313581501	80.65098641483355	85.33942394590125	0	0	34.99461774930094	-34.99461774930094	4.660576313581501	80.65098641483355	85.33942394583842	0	0
18.3799999999997	1.262839444790105	0.9599976827941699	21.76856069449427	0	0.9399999999999999	0	3.191302555734619	-3.813101256836449	1.273216871269613	1.346347029450256	0.02349818853835202	0	0	0	-2.169203867433766	-3.340040379855759	-3.91456623587277	-0.3109524058515404	-0.005427143299107063	0	0	0	0	0	0	34.99598494614806	-34.99598494614806	4.66066911845605	80.65217797286809	85.33933114103122	0	0	34.99598494614806	-34.99598494614806	4.66066911845605	80.65217797286809	85.3393311409684	0	0
18.3999999999997	1.27714575387321	0.9749793684358101	21.75778163676043	0	0.9399999999999999	0	3.190360154621739	-3.815749095058722	1.305152452629482	1.650379002891361	0.02880454750623527	0	0	0	-1.824904817156742	-3.341216015086726	-3.660395861331065	0.2556124799610656	0.004461279384508621	0	0	0	0	0	0	34.99773463925416	-34.99773463925416	4.660787890437216	80.65370293157177	85.33921236905579	0	0	34.99773463925416	-34.99773463925416	4.660787890437216	80.65370293157177	85.33921236899296	0	0
18.4199999999997	1.277274000235403	0.9745719853429997	21.73941017537096	0	0.9399999999999999	0	4.056705181178431	-3.698292059703965	1.403749372866455	2.410976249462427	0.04207947374050352	0	0	0	-1.420517957032152	-3.43886499388699	-3.666370492953743	0.8709842190972972	0.01520154235615951	0	0	0	0	0	0	34.99958060722801	-34.99958060722801	4.660913078599219	80.65531025905817	85.33908718089981	0	0	34.99958060722801	-34.99958060722801	4.660913078599219	80.65531025905817	85.339087180837	0	0
18.4399999999997	1.282585729876537	0.972981514154269	21.73898261154392	0	0.9399999999999999	0	4.623377307138678	-3.547631316793947	1.887512678837175	3.246650948976833	0.05666474872264417	0	0	0	-1.01206872907834	-3.560114320421549	-3.827448640054971	1.578938416401448	0.02755767405243051	0	0	0	0	0	0	35.001525973032	-35.001525973032	4.661045292674062	80.65700781387709	85.33895496683138	0	0	35.001525973032	-35.001525973032	4.661045292674062	80.65700781387709	85.33895496676863	0	0
18.4599999999997	1.280821330023344	0.9751178240150045	21.73799098912783	0	0.9399999999999999	0	4.650761270301005	-3.598259978301245	1.975105403669692	3.957513393808608	0.06907163891373518	0	0	0	-0.4969783200607287	-3.658595828935036	-3.834345058631535	2.336403544509463	0.04077793450695601	0	0	0	0	0	0	35.00470248848982	-35.00470248848982	4.661259336857565	80.65975586956489	85.33874092265826	0	0	35.00470248848982	-35.00470248848982	4.661259336857565	80.65975586956489	85.33874092259555	0	0
18.47999999999969	1.278532561318014	0.9709615167426069	21.74164232201905	0	0.9399999999999999	0	5.697492961845122	-3.24154607174837	2.243989739408346	4.909449442641542	0.0856860572342954	0	0	0	0.1275681390674677	-3.694124704786658	-3.639436601428822	3.129065134370663	0.05461248910412686	0	0	0	0	0	0	35.00670478316018	-35.00670478316018	4.66139506690382	80.66149853493198	85.33860519261856	0	0	35.00670478316018	-35.00670478316018	4.66139506690382	80.66149853493198	85.33860519255589	0	0
18.49999999999969	1.273591053552998	0.9700084207357239	21.75015916415491	0	0.9399999999999999	0	6.24784244456986	-3.101012715427485	2.086453036397275	5.695637183871257	0.09940762185757111	0	0	0	0.8195763754703016	-3.577417287672314	-3.40335516957116	3.920098898833079	0.06841863278844133	0	0	0	0	0	0	35.00849179595232	-35.00849179595232	4.661516247490594	80.66305439826752	85.33848401203767	0	0	35.00849179595232	-35.00849179595232	4.661516247490594	80.66305439826752	85.33848401197504	0	0
18.51999999999969	1.25881268922408	0.9734052620738969	21.75527421139332	0	0.9399999999999999	0	6.267653838377409	-3.103526131475068	2.081235409336797	5.728416403156295	0.09997972716032824	0	0	0	1.503026409523661	-3.534929594384647	-3.279659334272766	4.831684109113557	0.08432879612032051	0	0	0	0	0	0	35.0101391012031	-35.0101391012031	4.661627539287425	80.66448326397182	85.33837272024621	0	0	35.0101391012031	-35.0101391012031	4.661627539287425	80.66448326397182	85.33837272018359	0	0
18.53999999999969	1.288156981060406	0.9767887475292334	21.74187026975005	0	0.9399999999999999	0	7.614715138551823	-2.853747926628476	1.902331601654785	7.408523416709701	0.1293031263326842	0	0	0	2.169184448103133	-3.688815321084242	-3.551270770114274	5.96444400219938	0.1040991858892071	0	0	0	0	0	0	35.01335542079823	-35.01335542079823	4.661845371650865	80.66728002739958	85.33815488789331	0	0	35.01335542079823	-35.01335542079823	4.661845371650865	80.66728002739958	85.3381548878307	0	0
18.55999999999969	1.288973269304716	0.9788861083832705	21.74878473318001	0	0.9399999999999999	0	8.519808080485666	-2.670522083456143	1.992896885603803	9.146898866074869	0.1596435015599423	0	0	0	2.914713373978499	-3.890315238778005	-4.00685794600173	7.272314163315975	0.1269258263892804	0	0	0	0	0	0	35.01563073455739	-35.01563073455739	4.661999638704202	80.6692606841434	85.33800062084734	0	0	35.01563073455739	-35.01563073455739	4.661999638704202	80.6692606841434	85.33800062078477	0	0
